<svg width="32" height="32" viewBox="0 0 32 32" fill="none" xmlns="http://www.w3.org/2000/svg">
<circle cx="16" cy="16" r="15.5" stroke="#86A0D6"/>
<path d="M15.335 10.5967C15.599 10.0334 16.401 10.0334 16.665 10.5967C17.0705 11.461 18.0987 11.8354 18.9648 11.4336C19.5291 11.172 20.1422 11.687 19.9824 12.2881C19.7374 13.2108 20.2844 14.1582 21.2061 14.4072C21.8065 14.5694 21.9459 15.3579 21.4375 15.7158C20.6564 16.265 20.4659 17.3427 21.0117 18.126C21.3675 18.6362 20.9674 19.3303 20.3477 19.2773C19.3961 19.196 18.5578 19.8994 18.4727 20.8506C18.4172 21.4701 17.6644 21.7444 17.2236 21.3057C16.547 20.6317 15.453 20.6317 14.7764 21.3057C14.3356 21.7444 13.5828 21.4701 13.5273 20.8506C13.4422 19.8994 12.6039 19.196 11.6523 19.2773C11.0326 19.3303 10.6325 18.6362 10.9883 18.126C11.5341 17.3427 11.3436 16.265 10.5625 15.7158C10.0541 15.3579 10.1935 14.5694 10.7939 14.4072C11.7156 14.1582 12.2626 13.2108 12.0176 12.2881C11.8578 11.687 12.4709 11.172 13.0352 11.4336C13.9013 11.8354 14.9295 11.461 15.335 10.5967Z" stroke="white"/>
</svg>
