<svg viewBox="0 0 48 48" fill="none" xmlns="http://www.w3.org/2000/svg">
<rect width="48" height="48" rx="24" fill="#11437A"/>
<path d="M17.9896 17.9895C18.265 17.7141 18.6781 17.5493 19.2491 17.5351C19.8238 17.5209 20.5275 17.6619 21.32 17.9667C22.9042 18.576 24.7551 19.8053 26.4749 21.525C28.1946 23.2447 29.4239 25.0957 30.0332 26.6799C30.338 27.4724 30.479 28.1761 30.4648 28.7508C30.4506 29.3218 30.2858 29.7349 30.0104 30.0103C29.735 30.2857 29.3219 30.4505 28.7509 30.4647C28.1762 30.4789 27.4726 30.3379 26.68 30.0331C25.0958 29.4238 23.2449 28.1945 21.5251 26.4748C19.8054 24.755 18.5761 22.9041 17.9668 21.3199C17.662 20.5273 17.521 19.8237 17.5352 19.249C17.5494 18.678 17.7142 18.2649 17.9896 17.9895Z" stroke="white"/>
<path d="M30.0105 17.9896C30.2859 18.265 30.4507 18.6781 30.4649 19.2491C30.4791 19.8238 30.3381 20.5275 30.0333 21.32C29.424 22.9042 28.1947 24.7551 26.475 26.4749C24.7553 28.1946 22.9043 29.4239 21.3201 30.0332C20.5276 30.338 19.8239 30.479 19.2492 30.4648C18.6782 30.4506 18.2651 30.2858 17.9897 30.0104C17.7143 29.735 17.5495 29.3219 17.5353 28.7509C17.5211 28.1762 17.6621 27.4726 17.9669 26.68C18.5762 25.0958 19.8055 23.2449 21.5252 21.5251C23.245 19.8054 25.0959 18.5761 26.6801 17.9668C27.4727 17.662 28.1763 17.521 28.751 17.5352C29.322 17.5494 29.7351 17.7142 30.0105 17.9896Z" stroke="white"/>
<circle cx="24" cy="24" r="1" fill="white"/>
</svg>
