<svg width="52" height="52" viewBox="0 0 52 52" fill="none" xmlns="http://www.w3.org/2000/svg">
<circle cx="26" cy="26" r="25" fill="white" stroke="#11437A" stroke-width="2"/>
<path d="M29.5983 29.6L29.3983 29.78C29.5283 29.66 29.6483 29.54 29.7683 29.41L29.5983 29.6Z" fill="#11437A"/>
<path d="M25 18C21.13 18 18 21.13 18 25C18 28.87 21.13 32 25 32C26.75 32 28.35 31.35 29.58 30.29L33.29 34L34 33.29L30.29 29.58C31.35 28.35 32 26.75 32 25C32 21.13 28.87 18 25 18ZM25 31C21.69 31 19 28.31 19 25C19 21.69 21.69 19 25 19C28.31 19 31 21.69 31 25C31 28.31 28.31 31 25 31Z" fill="#11437A"/>
<line x1="25.1016" y1="22" x2="25.1016" y2="28" stroke="#11437A"/>
<line x1="28" y1="25" x2="22" y2="25" stroke="#11437A"/>
</svg>
