<svg width="82" height="70" viewBox="0 0 82 70" fill="none" xmlns="http://www.w3.org/2000/svg">
<circle cx="47" cy="35" r="34.625" stroke="white" stroke-width="0.75"/>
<ellipse cx="21.375" cy="34.501" rx="3.75" ry="6.75" fill="#11437A"/>
<rect x="18.375" y="27.7507" width="14.25" height="13.5" fill="#11437A"/>
<ellipse cx="39.375" cy="34.5" rx="5.25" ry="9.75" fill="#11437A"/>
<ellipse cx="37.875" cy="34.5" rx="5.25" ry="9.75" fill="#11437A"/>
<ellipse cx="33.375" cy="34.5" rx="4.5" ry="9.75" fill="#11437A"/>
<rect x="33.375" y="24.75" width="6" height="19.5" fill="#11437A"/>
<path d="M39 24C42.3137 24 45 28.701 45 34.5C45 40.299 42.3137 45 39 45C35.6863 45 33 40.299 33 34.5C33 28.701 35.6863 24 39 24ZM39 24.75C37.7284 24.75 36.4303 25.6586 35.4082 27.4473C34.3982 29.2148 33.75 31.7068 33.75 34.5C33.75 37.2932 34.3982 39.7852 35.4082 41.5527C36.4303 43.3414 37.7284 44.25 39 44.25C40.2716 44.25 41.5697 43.3414 42.5918 41.5527C43.6018 39.7852 44.25 37.2932 44.25 34.5C44.25 31.7068 43.6018 29.2148 42.5918 27.4473C41.5697 25.6586 40.2716 24.75 39 24.75Z" fill="white"/>
<path d="M39 30.3757C40.2426 30.3757 41.25 32.2226 41.25 34.5007C41.25 36.7789 40.2426 38.6257 39 38.6257C37.7574 38.6257 36.75 36.7789 36.75 34.5007C36.75 32.2226 37.7574 30.3757 39 30.3757ZM39 31.1257C38.7818 31.1257 38.4191 31.2983 38.0674 31.9431C37.7311 32.5596 37.5 33.4624 37.5 34.5007C37.5 35.539 37.7311 36.4419 38.0674 37.0583C38.4191 37.7032 38.7818 37.8757 39 37.8757C39.2182 37.8757 39.5809 37.7032 39.9326 37.0583C40.2689 36.4419 40.5 35.539 40.5 34.5007C40.5 33.4624 40.2689 32.5596 39.9326 31.9431C39.5809 31.2983 39.2182 31.1257 39 31.1257Z" fill="white"/>
<path d="M33.75 24.7499C32.6068 24.7499 31.3993 25.627 30.4336 27.4296C29.4848 29.2008 28.875 31.6992 28.875 34.4999C28.875 37.3007 29.4848 39.7991 30.4336 41.5703C31.3993 43.3729 32.6068 44.2499 33.75 44.2499V44.9999C30.6434 44.9999 28.125 40.2989 28.125 34.4999C28.125 28.7009 30.6434 23.9999 33.75 23.9999V24.7499Z" fill="white"/>
<rect x="33.75" y="24" width="5.625" height="0.75" fill="white"/>
<rect x="33.75" y="44.25" width="5.625" height="0.75" fill="white"/>
<path d="M22.9502 28.125C22.3316 28.125 21.5915 28.6154 20.9619 29.8115C20.3507 30.973 19.9502 32.6294 19.9502 34.5C19.9502 36.3706 20.3507 38.027 20.9619 39.1885C21.5915 40.3846 22.3316 40.875 22.9502 40.875V41.625C20.8791 41.625 19.2002 38.435 19.2002 34.5C19.2002 30.565 20.8791 27.375 22.9502 27.375V28.125Z" fill="white"/>
<rect x="22.9253" y="27.38" width="7" height="0.75" fill="white"/>
<rect x="22.9253" y="40.9" width="7" height="0.75" fill="white"/>
<ellipse cx="69.25" cy="34.5007" rx="3.75" ry="6.75" transform="rotate(-180 69.25 34.5007)" fill="#11437A"/>
<rect x="73.875" y="41.2504" width="17.25" height="13.5" transform="rotate(-180 73.875 41.2504)" fill="#11437A"/>
<ellipse cx="60" cy="34.5" rx="5.25" ry="9.75" fill="#11437A"/>
<ellipse cx="58.5" cy="34.5" rx="5.25" ry="9.75" fill="#11437A"/>
<ellipse cx="54" cy="34.5" rx="4.5" ry="9.75" fill="#11437A"/>
<rect x="54" y="24.75" width="6" height="19.5" fill="#11437A"/>
<path d="M54.375 24.7499C53.2318 24.7499 52.0243 25.627 51.0586 27.4296C50.1098 29.2008 49.5 31.6992 49.5 34.4999C49.5 37.3007 50.1098 39.7991 51.0586 41.5703C52.0243 43.3729 53.2318 44.2499 54.375 44.2499V44.9999C51.2684 44.9999 48.75 40.2989 48.75 34.4999C48.75 28.7009 51.2684 23.9999 54.375 23.9999V24.7499Z" fill="white"/>
<rect x="54.375" y="24" width="5.625" height="0.75" fill="white"/>
<rect x="54.375" y="44.25" width="5.625" height="0.75" fill="white"/>
<path d="M69.625 41.2506C68.798 41.2506 67.9597 40.6066 67.3057 39.3639C66.6607 38.1384 66.25 36.4198 66.25 34.5006C66.25 32.5814 66.6607 30.8628 67.3057 29.6373C67.9597 28.3946 68.798 27.7506 69.625 27.7506C70.452 27.7506 71.2903 28.3946 71.9443 29.6373C72.5893 30.8628 73 32.5814 73 34.5006C73 36.4198 72.5893 38.1384 71.9443 39.3639C71.2903 40.6066 70.452 41.2506 69.625 41.2506Z" stroke="white" stroke-width="0.75"/>
<rect x="69.5" y="41.63" width="10" height="0.75" transform="rotate(-180 69.5 41.63)" fill="white"/>
<rect x="69.5" y="28.1199" width="10" height="0.75" transform="rotate(-180 69.5 28.1199)" fill="white"/>
<circle cx="35.25" cy="34.5007" r="0.75" fill="white"/>
<circle cx="42.75" cy="34.5007" r="0.75" fill="white"/>
<circle cx="36" cy="30.3757" r="0.75" fill="white"/>
<circle cx="42" cy="38.6257" r="0.75" fill="white"/>
<circle cx="36" cy="38.6257" r="0.75" fill="white"/>
<circle cx="42" cy="30.3757" r="0.75" fill="white"/>
<circle cx="39" cy="27.7507" r="0.75" fill="white"/>
<circle cx="39" cy="41.2507" r="0.75" fill="white"/>
<path d="M59.625 28.1254C59.0065 28.1254 58.2663 28.6157 57.6367 29.8119C57.0255 30.9734 56.625 32.6298 56.625 34.5004C56.625 36.3709 57.0255 38.0274 57.6367 39.1888C58.227 40.3103 58.9145 40.8113 59.5078 40.8695L59.625 40.8754V41.2504H60.8252C60.4481 41.4925 60.0451 41.6254 59.625 41.6254C57.554 41.6254 55.875 38.4353 55.875 34.5004C55.875 30.5653 57.5539 27.3754 59.625 27.3754V28.1254ZM59.625 27.3754C60.0451 27.3754 60.4481 27.5082 60.8252 27.7504H59.625V27.3754Z" fill="white"/>
<path d="M59.625 24C61.4698 24 63.1191 25.4576 64.2197 27.75H63.3818C63.3278 27.647 63.2731 27.5459 63.2168 27.4473C62.1947 25.6586 60.8966 24.75 59.625 24.75C58.3534 24.75 57.0553 25.6586 56.0332 27.4473C55.0232 29.2148 54.375 31.7068 54.375 34.5C54.375 37.2932 55.0232 39.7852 56.0332 41.5527C57.0553 43.3414 58.3534 44.25 59.625 44.25C60.8966 44.25 62.1947 43.3414 63.2168 41.5527C63.2731 41.4541 63.3278 41.353 63.3818 41.25H64.2197C63.1191 43.5424 61.4698 45 59.625 45C56.3113 45 53.625 40.299 53.625 34.5C53.625 28.701 56.3113 24 59.625 24Z" fill="white"/>
</svg>
