<svg width="70" height="70" viewBox="0 0 70 70" fill="none" xmlns="http://www.w3.org/2000/svg">
<circle cx="35" cy="35" r="34.625" stroke="white" stroke-width="0.75"/>
<circle cx="42.875" cy="26.625" r="3.75" fill="#11437A"/>
<rect x="44.375" y="23.2555" width="21.7357" height="6.89423" transform="rotate(45 44.375 23.2555)" fill="#11437A"/>
<circle cx="58.625" cy="42.375" r="3.75" fill="#11437A" stroke="white" stroke-width="0.75"/>
<path d="M39.875 28.875L56.375 45.375M45.5 24L61.25 39.75" stroke="white" stroke-width="0.75"/>
<path d="M42.875 22.5C44.119 22.5 45.233 23.052 45.9893 23.9229L45.458 24.4541C44.8389 23.7182 43.9119 23.25 42.875 23.25C41.011 23.25 39.5 24.761 39.5 26.625C39.5 27.6619 39.9682 28.5889 40.7041 29.208L40.1729 29.7393C39.302 28.983 38.75 27.869 38.75 26.625C38.75 24.3468 40.5968 22.5 42.875 22.5Z" fill="white"/>
<circle cx="31.6719" cy="25.9219" r="5.15625" fill="#11437A"/>
<rect x="34.0249" y="21.2889" width="30.375" height="10.125" transform="rotate(45 34.0249 21.2889)" fill="#11437A"/>
<circle cx="53.3281" cy="47.5781" r="5.29688" fill="#11437A" stroke="white" stroke-width="0.75"/>
<circle cx="53.375" cy="47.625" r="3.75" fill="#11437A" stroke="white" stroke-width="0.75"/>
<path d="M27.5469 29.0156L49.625 51.375M35.375 22.125L57.125 43.875" stroke="white" stroke-width="0.75"/>
<path d="M31.6719 20.25C33.3823 20.25 34.9142 21.0087 35.9541 22.2061L35.4229 22.7373C34.52 21.675 33.1752 21 31.6719 21C28.9536 21 26.75 23.2036 26.75 25.9219C26.75 27.4255 27.4247 28.771 28.4873 29.6738L27.9561 30.2051C26.7584 29.1652 26 27.6326 26 25.9219C26 22.7894 28.5394 20.25 31.6719 20.25Z" fill="white"/>
<circle cx="12.8984" cy="25.8984" r="4.45312" fill="#11437A"/>
<rect x="14.6797" y="21.8972" width="25.8111" height="8.18689" transform="rotate(45 14.6797 21.8972)" fill="#11437A"/>
<circle cx="31.6016" cy="44.6016" r="4.52344" fill="#11437A" stroke="white" stroke-width="0.75"/>
<path d="M9.5 28.875L28.625 48M16.0156 22.7812L34.7188 41.4844" stroke="white" stroke-width="0.75"/>
<path d="M12.8984 21C14.3756 21 15.6995 21.6544 16.5977 22.6885L16.0654 23.2207C15.3045 22.3216 14.1686 21.75 12.8984 21.75C10.6073 21.75 8.75 23.6073 8.75 25.8984C8.75 27.1686 9.32161 28.3045 10.2207 29.0654L9.68848 29.5977C8.65437 28.6995 8 27.3756 8 25.8984C8 23.1931 10.1931 21 12.8984 21Z" fill="white"/>
<circle cx="18.875" cy="22.125" r="3.75" fill="#11437A"/>
<rect x="20.375" y="18.7555" width="21.7357" height="6.89423" transform="rotate(45 20.375 18.7555)" fill="#11437A"/>
<circle cx="34.625" cy="37.875" r="3.75" fill="#11437A" stroke="white" stroke-width="0.75"/>
<path d="M15.875 24.375L32.375 40.875M21.5 19.5L37.25 35.25" stroke="white" stroke-width="0.75"/>
<path d="M18.875 18C20.119 18 21.233 18.552 21.9893 19.4229L21.458 19.9541C20.8389 19.2182 19.9119 18.75 18.875 18.75C17.011 18.75 15.5 20.261 15.5 22.125C15.5 23.1619 15.9682 24.0889 16.7041 24.708L16.1729 25.2393C15.302 24.483 14.75 23.369 14.75 22.125C14.75 19.8468 16.5968 18 18.875 18Z" fill="white"/>
</svg>
