<svg viewBox="0 0 48 48" fill="none" xmlns="http://www.w3.org/2000/svg">
<rect width="48" height="48" rx="24" fill="#11437A"/>
<path d="M29.1128 18.5005C29.8908 18.5005 30.6773 19.0212 31.2954 20.0366C31.908 21.0432 32.3032 22.4655 32.3032 24.063C32.3032 25.6608 31.9081 27.0837 31.2954 28.0903C30.6773 29.1058 29.8908 29.6255 29.1128 29.6255C28.3348 29.6255 27.5483 29.1058 26.9302 28.0903C26.3174 27.0837 25.9224 25.6608 25.9224 24.063C25.9224 22.4654 26.3176 21.0432 26.9302 20.0366C27.5483 19.0211 28.3348 18.5005 29.1128 18.5005Z" stroke="white"/>
<rect x="19.5" y="18" width="9.6" height="1" fill="white"/>
<rect x="19.5" y="29.1191" width="9.6" height="1" fill="white"/>
<path d="M19.6904 19C19.1535 19 18.504 19.3621 17.9355 20.2959C17.3779 21.212 17 22.541 17 24.0625C17 25.584 17.3779 26.914 17.9355 27.8301C18.5039 28.7636 19.1536 29.125 19.6904 29.125V30.125L19.5 30.1172C17.5504 29.9544 16 27.306 16 24.0625C16.0001 20.7143 17.6523 18 19.6904 18V19Z" fill="white"/>
</svg>
