<svg viewBox="0 0 48 48" fill="none" xmlns="http://www.w3.org/2000/svg">
<rect width="48" height="48" rx="24" fill="#11437A"/>
<path d="M23.6797 15.9189C23.8652 15.7641 24.1348 15.7641 24.3203 15.9189L25.2949 16.7324C25.6333 17.0148 26.0785 17.134 26.5127 17.0586L27.7627 16.8418C28.0009 16.8004 28.2351 16.9352 28.3184 17.1621L28.7549 18.3535C28.9067 18.7672 29.2328 19.0933 29.6465 19.2451L30.8379 19.6816C31.0648 19.7649 31.1996 19.9991 31.1582 20.2373L30.9414 21.4873C30.866 21.9215 30.9852 22.3667 31.2676 22.7051L32.0811 23.6797C32.2359 23.8652 32.2359 24.1348 32.0811 24.3203L31.2676 25.2949C30.9852 25.6333 30.866 26.0785 30.9414 26.5127L31.1582 27.7627C31.1996 28.0009 31.0648 28.2351 30.8379 28.3184L29.6465 28.7549C29.2328 28.9067 28.9067 29.2328 28.7549 29.6465L28.3184 30.8379C28.2351 31.0648 28.0009 31.1996 27.7627 31.1582L26.5127 30.9414C26.0785 30.866 25.6333 30.9852 25.2949 31.2676L24.3203 32.0811C24.1348 32.2359 23.8652 32.2359 23.6797 32.0811L22.7051 31.2676C22.3667 30.9852 21.9215 30.866 21.4873 30.9414L20.2373 31.1582C19.9991 31.1996 19.7649 31.0648 19.6816 30.8379L19.2451 29.6465C19.0933 29.2328 18.7672 28.9067 18.3535 28.7549L17.1621 28.3184C16.9352 28.2351 16.8004 28.0009 16.8418 27.7627L17.0586 26.5127C17.134 26.0785 17.0148 25.6333 16.7324 25.2949L15.9189 24.3203C15.7641 24.1348 15.7641 23.8652 15.9189 23.6797L16.7324 22.7051C17.0148 22.3667 17.134 21.9215 17.0586 21.4873L16.8418 20.2373C16.8004 19.9991 16.9352 19.7649 17.1621 19.6816L18.3535 19.2451C18.7672 19.0933 19.0933 18.7672 19.2451 18.3535L19.6816 17.1621C19.7649 16.9352 19.9991 16.8004 20.2373 16.8418L21.4873 17.0586C21.9215 17.134 22.3667 17.0148 22.7051 16.7324L23.6797 15.9189Z" stroke="white"/>
<circle cx="24" cy="24" r="4.5" stroke="white"/>
</svg>
