<svg width="70" height="70" viewBox="0 0 70 70" fill="none" xmlns="http://www.w3.org/2000/svg">
<circle cx="35" cy="35" r="34.625" stroke="white" stroke-width="0.75"/>
<rect x="28.375" y="35.25" width="12" height="12.75" transform="rotate(-90 28.375 35.25)" fill="#11437A"/>
<ellipse cx="34.75" cy="19.5" rx="3.75" ry="8.25" transform="rotate(-90 34.75 19.5)" fill="#11437A"/>
<ellipse cx="34.8996" cy="19.1999" rx="4.2" ry="7.8" transform="rotate(-90 34.8996 19.1999)" fill="#11437A"/>
<ellipse cx="34.75" cy="22.5" rx="3.75" ry="8.25" transform="rotate(-90 34.75 22.5)" fill="#11437A"/>
<rect x="26.5" y="22.5" width="4.5" height="15.75" transform="rotate(-90 26.5 22.5)" fill="#11437A"/>
<path d="M26.1357 18.7939C26.3609 16.6806 30.0313 15 34.5254 15L34.957 15.0049C39.3954 15.112 42.9248 16.8599 42.9248 19L42.9141 19.2061C42.6961 21.2513 39.2521 22.8915 34.957 22.9951L34.5254 23C29.8862 23 26.125 21.2091 26.125 19L26.1357 18.7939ZM26.875 19C26.875 19.6481 27.4535 20.4586 28.9082 21.1514C30.307 21.8173 32.2923 22.25 34.5254 22.25C36.7586 22.2499 38.7439 21.8174 40.1426 21.1514C41.5971 20.4587 42.1748 19.6481 42.1748 19C42.1748 18.3519 41.5971 17.5413 40.1426 16.8486C38.7439 16.1826 36.7586 15.7501 34.5254 15.75C32.2923 15.75 30.307 16.1826 28.9082 16.8486C27.4535 17.5414 26.875 18.3519 26.875 19Z" fill="white"/>
<path d="M26.875 22.5C26.875 22.7748 26.9966 23.0922 27.3291 23.4434C27.6657 23.7986 28.1882 24.1532 28.8906 24.4668C30.2939 25.0933 32.286 25.5 34.5254 25.5C36.7646 25.5 38.7559 25.0932 40.1592 24.4668C40.8616 24.1532 41.3841 23.7986 41.7207 23.4434C42.0533 23.0922 42.1748 22.7748 42.1748 22.5L42.9248 22.5C42.9248 24.5064 39.3954 26.1447 34.957 26.2451L34.5254 26.25C29.8862 26.25 26.125 24.5711 26.125 22.5L26.875 22.5Z" fill="white"/>
<rect x="26.125" y="22.5" width="3.75" height="0.75" transform="rotate(-90 26.125 22.5)" fill="white"/>
<rect x="42.1753" y="22.5" width="3.75" height="0.75" transform="rotate(-90 42.1753 22.5)" fill="white"/>
<path d="M28.2998 18.9976C28.2998 18.7723 28.4129 18.5187 28.7002 18.2485C28.9881 17.9778 29.4252 17.7169 29.9961 17.4897C31.1362 17.0363 32.7373 16.7476 34.5244 16.7476C36.3115 16.7476 37.9126 17.0363 39.0527 17.4897C39.6239 17.7169 40.0616 17.9777 40.3496 18.2485C40.6369 18.5187 40.75 18.7723 40.75 18.9976C40.75 19.2228 40.6369 19.4764 40.3496 19.7466C40.0616 20.0174 39.6239 20.2782 39.0527 20.5054C37.9126 20.9588 36.3115 21.2476 34.5244 21.2476C32.7373 21.2475 31.1362 20.9588 29.9961 20.5054C29.4252 20.2783 28.9881 20.0173 28.7002 19.7466C28.4129 19.4764 28.2998 19.2228 28.2998 18.9976Z" stroke="white" stroke-width="0.75"/>
<rect x="27.7749" y="35.25" width="10.5" height="0.750001" transform="rotate(-90 27.7749 35.25)" fill="white"/>
<rect x="40.5249" y="34.5" width="9.75" height="0.750001" transform="rotate(-90 40.5249 34.5)" fill="white"/>
<ellipse cx="21.25" cy="39" rx="5.25" ry="9.75" fill="#11437A"/>
<ellipse cx="19.75" cy="39" rx="5.25" ry="9.75" fill="#11437A"/>
<ellipse cx="15.25" cy="39" rx="4.5" ry="9.75" fill="#11437A"/>
<rect x="15.25" y="29.25" width="6" height="19.5" fill="#11437A"/>
<rect x="24.25" y="32.25" width="24" height="13.5" fill="#11437A"/>
<ellipse cx="55" cy="39" rx="5.25" ry="9.75" fill="#11437A"/>
<ellipse cx="53.5" cy="39" rx="5.25" ry="9.75" fill="#11437A"/>
<ellipse cx="49" cy="39" rx="4.5" ry="9.75" fill="#11437A"/>
<rect x="49" y="29.25" width="6" height="19.5" fill="#11437A"/>
<path d="M15.625 29.2499C14.4818 29.2499 13.2743 30.1269 12.3086 31.9296C11.3598 33.7007 10.75 36.1991 10.75 38.9999C10.75 41.8006 11.3598 44.299 12.3086 46.0702C13.2743 47.8728 14.4818 48.7499 15.625 48.7499V49.4989H15.6455C15.6387 49.4989 15.6318 49.4999 15.625 49.4999C12.5184 49.4999 10 44.7989 10 38.9999C10 33.2009 12.5184 28.4999 15.625 28.4999V29.2499Z" fill="white"/>
<rect x="15.625" y="28.5" width="5.625" height="0.75" fill="white"/>
<rect x="15.625" y="48.75" width="5.625" height="0.75" fill="white"/>
<path d="M54.625 31.125C55.5455 31.125 56.4795 31.881 57.2061 33.334C57.9214 34.7646 58.375 36.7674 58.375 39C58.375 41.2326 57.9214 43.2354 57.2061 44.666C56.4795 46.119 55.5455 46.875 54.625 46.875C53.7045 46.875 52.7705 46.119 52.0439 44.666C51.3286 43.2354 50.875 41.2326 50.875 39C50.875 36.7674 51.3286 34.7646 52.0439 33.334C52.7705 31.881 53.7045 31.125 54.625 31.125Z" stroke="white" stroke-width="0.75"/>
<path d="M54.625 28.5C57.9387 28.5 60.625 33.201 60.625 39C60.625 44.799 57.9387 49.5 54.625 49.5C51.3113 49.5 48.625 44.799 48.625 39C48.625 33.201 51.3113 28.5 54.625 28.5ZM54.625 29.25C53.3534 29.25 52.0553 30.1586 51.0332 31.9473C50.0232 33.7148 49.375 36.2068 49.375 39C49.375 41.7932 50.0232 44.2852 51.0332 46.0527C52.0553 47.8414 53.3534 48.75 54.625 48.75C55.8966 48.75 57.1947 47.8414 58.2168 46.0527C59.2268 44.2852 59.875 41.7932 59.875 39C59.875 36.2068 59.2268 33.7148 58.2168 31.9473C57.1947 30.1586 55.8966 29.25 54.625 29.25Z" fill="white"/>
<path d="M49.375 29.2499C48.2318 29.2499 47.0243 30.1269 46.0586 31.9296C45.1098 33.7007 44.5 36.1991 44.5 38.9999C44.5 41.8006 45.1098 44.299 46.0586 46.0702C47.0243 47.8728 48.2318 48.7499 49.375 48.7499V49.4989H49.3955C49.3887 49.4989 49.3818 49.4999 49.375 49.4999C46.2684 49.4999 43.75 44.7989 43.75 38.9999C43.75 33.2009 46.2684 28.4999 49.375 28.4999V29.2499Z" fill="white"/>
<rect x="49.375" y="28.5" width="5.625" height="0.75" fill="white"/>
<rect x="49.375" y="48.75" width="5.625" height="0.75" fill="white"/>
<path d="M22 32.625C21.3815 32.625 20.6413 33.1154 20.0117 34.3115C19.4005 35.473 19 37.1294 19 39C19 40.8706 19.4005 42.527 20.0117 43.6885C20.6413 44.8846 21.3815 45.375 22 45.375V46.125C19.9289 46.125 18.25 42.935 18.25 39C18.25 35.065 19.9289 31.875 22 31.875V32.625Z" fill="white"/>
<rect x="22" y="31.875" width="23.25" height="0.75" fill="white"/>
<rect x="22" y="45.375" width="23.25" height="0.75" fill="white"/>
<path d="M20.875 28.5C22.7198 28.5 24.3691 29.9576 25.4697 32.25H24.6318C24.5778 32.147 24.5231 32.0459 24.4668 31.9473C23.4447 30.1586 22.1466 29.25 20.875 29.25C19.6034 29.25 18.3053 30.1586 17.2832 31.9473C16.2732 33.7148 15.625 36.2068 15.625 39C15.625 41.7932 16.2732 44.2852 17.2832 46.0527C18.3053 47.8414 19.6034 48.75 20.875 48.75C22.1466 48.75 23.4447 47.8414 24.4668 46.0527C24.5231 45.9541 24.5778 45.853 24.6318 45.75H25.4697C24.3691 48.0424 22.7198 49.5 20.875 49.5C17.5613 49.5 14.875 44.799 14.875 39C14.875 33.201 17.5613 28.5 20.875 28.5Z" fill="white"/>
<rect x="28.5249" y="31.5" width="12" height="2.25" fill="#11437A"/>
</svg>
