<svg width="175" height="33" viewBox="0 0 175 33" fill="none" xmlns="http://www.w3.org/2000/svg">
<path d="M32.9616 14.3072C32.9616 14.3072 33.7791 5.03698 33.8623 4.12936C33.8865 3.60166 33.8042 3.0745 33.6204 2.57928C33.4365 2.08406 33.1548 1.63092 32.7921 1.24688C32.4294 0.862833 31.9931 0.555744 31.5092 0.343912C31.0253 0.13208 30.5037 0.0198411 29.9755 0.0138863H6.57824C5.49957 -0.060878 4.43481 0.291862 3.61414 0.995854C2.79346 1.69984 2.2828 2.69853 2.19256 3.77601C2.08863 4.86377 0.14868 27.2772 0.0308967 28.5658C-0.0382192 29.1146 0.00892859 29.6718 0.169276 30.2012C0.329624 30.7306 0.599583 31.2203 0.961602 31.6386C1.32362 32.0568 1.7696 32.3941 2.27054 32.6287C2.77149 32.8633 3.31619 32.9898 3.86923 33H27.1279C30.2179 33 31.4166 31.3649 31.6798 28.843C31.8392 27.3326 32.6013 18.2079 32.6013 18.2079H18.5367L17.9339 25.261H14.3727L15.9039 7.75291H19.4651L18.8969 14.3072H32.9616Z" fill="#11437A"/>
<path d="M54.6614 2.83372C54.1625 4.27482 50.0678 17.0854 50.0678 17.0854L51.89 0H37.8323L34.8877 33H45.4812C48.1417 33 49.0494 31.4896 49.4928 30.2771C50.0263 28.836 53.9269 18.0554 53.9269 18.0554L52.4928 33H66.5574L69.4535 0.0138571H58.4165C57.5682 0.00769808 56.7412 0.280281 56.0628 0.789722C55.3844 1.29916 54.892 2.01728 54.6614 2.83372Z" fill="#11437A"/>
<path d="M125.899 0.0137939L124.583 15.0554H121.014L122.331 0.0137939H108.273C108.273 0.0137939 106.922 15.9491 106.777 17.4803C106.61 19.3163 107.65 21.9145 110.76 21.9145H123.987L123.696 25.2609H106.098L105.405 32.9999H133.389C135.287 32.9999 137.116 31.7597 137.366 29.1131C137.525 27.4156 139.943 0.0137939 139.943 0.0137939H125.899Z" fill="#11437A"/>
<path d="M162.592 0.020874H143.497L140.615 33.0001H154.673L155.567 22.7945H169.23C171.648 22.7945 173.248 21.5613 173.511 18.7345C173.608 17.6329 174.724 5.13403 174.793 4.03242C174.966 1.59362 173.026 0.020874 170.636 0.020874H162.592ZM156.169 15.9562L156.862 7.77376H160.389L159.696 15.9562H156.169Z" fill="#11437A"/>
<path d="M86.1302 11.0923L86.4281 7.75282H104.04L104.733 0.0137939H73.0355L70.1533 32.993H98.2133C100.001 32.993 101.934 31.9399 102.183 29.1824C102.37 27.1038 103.236 17.3071 103.396 15.5265C103.604 13.15 102.093 11.0923 99.1348 11.0923H86.1302ZM88.4027 26.1339H84.8138L85.5067 17.9584H89.0886L88.4027 26.1339Z" fill="#11437A"/>
</svg>
