<svg width="71" height="70" viewBox="0 0 71 70" fill="none" xmlns="http://www.w3.org/2000/svg">
<circle cx="36" cy="35" r="34.625" stroke="white" stroke-width="0.75"/>
<ellipse cx="39.375" cy="35.5" rx="5.25" ry="9.75" fill="#11437A"/>
<ellipse cx="37.875" cy="35.5" rx="5.25" ry="9.75" fill="#11437A"/>
<ellipse cx="11.25" cy="35.5" rx="4.875" ry="9.75" fill="#11437A"/>
<rect x="28.5" y="35.875" width="16.5" height="3.75" fill="#11437A" stroke="white" stroke-width="0.75"/>
<path d="M45.375 35.875C45.8007 35.875 46.0856 36.2102 46.2412 36.5215C46.4081 36.8552 46.5 37.2902 46.5 37.75C46.5 38.2098 46.4081 38.6448 46.2412 38.9785C46.0856 39.2898 45.8007 39.625 45.375 39.625C44.9493 39.625 44.6644 39.2898 44.5088 38.9785C44.3419 38.6448 44.25 38.2098 44.25 37.75C44.25 37.2902 44.3419 36.8552 44.5088 36.5215C44.6644 36.2102 44.9493 35.875 45.375 35.875Z" fill="#11437A" stroke="white" stroke-width="0.75"/>
<rect x="34.5" y="33.625" width="16.5" height="3.75" fill="#11437A" stroke="white" stroke-width="0.75"/>
<path d="M51.375 33.625C51.8007 33.625 52.0856 33.9602 52.2412 34.2715C52.4081 34.6052 52.5 35.0402 52.5 35.5C52.5 35.9598 52.4081 36.3948 52.2412 36.7285C52.0856 37.0398 51.8007 37.375 51.375 37.375C50.9493 37.375 50.6644 37.0398 50.5088 36.7285C50.3419 36.3948 50.25 35.9598 50.25 35.5C50.25 35.0402 50.3419 34.6052 50.5088 34.2715C50.6644 33.9602 50.9493 33.625 51.375 33.625Z" fill="#11437A" stroke="white" stroke-width="0.75"/>
<rect x="30.75" y="31.375" width="16.5" height="3.75" fill="#11437A" stroke="white" stroke-width="0.75"/>
<path d="M47.625 31.375C48.0507 31.375 48.3356 31.7102 48.4912 32.0215C48.6581 32.3552 48.75 32.7902 48.75 33.25C48.75 33.7098 48.6581 34.1448 48.4912 34.4785C48.3356 34.7898 48.0507 35.125 47.625 35.125C47.1993 35.125 46.9144 34.7898 46.7588 34.4785C46.5919 34.1448 46.5 33.7098 46.5 33.25C46.5 32.7902 46.5919 32.3552 46.7588 32.0215C46.9144 31.7102 47.1993 31.375 47.625 31.375Z" fill="#11437A" stroke="white" stroke-width="0.75"/>
<rect x="8.625" y="25.75" width="30" height="4.5" fill="#11437A"/>
<rect x="8.625" y="40.75" width="30" height="4.5" fill="#11437A"/>
<rect x="8.625" y="25.75" width="27" height="19.5" fill="#11437A"/>
<path d="M13.25 24.9999C16.3566 24.9999 18.875 29.7009 18.875 35.4999C18.875 41.2989 16.3566 45.9999 13.25 45.9999C10.1434 45.9999 7.625 41.2989 7.625 35.4999C7.625 29.7009 10.1434 24.9999 13.25 24.9999ZM13.25 25.7499C12.1068 25.7499 10.8993 26.6269 9.93359 28.4296C8.98478 30.2007 8.375 32.6991 8.375 35.4999C8.375 38.3006 8.98478 40.799 9.93359 42.5702C10.8993 44.3728 12.1068 45.2499 13.25 45.2499C14.3932 45.2499 15.6007 44.3728 16.5664 42.5702C17.5152 40.799 18.125 38.3006 18.125 35.4999C18.125 32.6991 17.5152 30.2007 16.5664 28.4296C15.6007 26.6269 14.3932 25.7499 13.25 25.7499Z" fill="white"/>
<rect x="13.625" y="25" width="7.5" height="21" fill="#11437A"/>
<rect x="12.875" y="25" width="26" height="0.75" fill="white"/>
<rect x="12.875" y="45.25" width="26" height="0.75" fill="white"/>
<path d="M39 27.25C40.448 27.25 41.721 28.7425 42.457 31H41.665C41.5385 30.6413 41.3987 30.3072 41.2461 30.002C40.5395 28.5887 39.702 28 39 28C38.298 28 37.4605 28.5887 36.7539 30.002C36.0698 31.3703 35.625 33.3131 35.625 35.5C35.625 37.6869 36.0698 39.6297 36.7539 40.998C37.4605 42.4113 38.298 43 39 43C39.702 43 40.5395 42.4113 41.2461 40.998C41.3987 40.6928 41.5385 40.3587 41.665 40H42.457C41.721 42.2575 40.448 43.75 39 43.75C36.7218 43.75 34.875 40.0563 34.875 35.5C34.875 30.9437 36.7218 27.25 39 27.25Z" fill="white"/>
<path d="M39 25C41.3934 25 43.4589 27.4527 44.4219 31H43.6426C43.3682 30.0441 43.0121 29.1827 42.5918 28.4473C41.5697 26.6586 40.2716 25.75 39 25.75C37.7284 25.75 36.4303 26.6586 35.4082 28.4473C34.3982 30.2148 33.75 32.7068 33.75 35.5C33.75 38.2932 34.3982 40.7852 35.4082 42.5527C36.4303 44.3414 37.7284 45.25 39 45.25C40.2716 45.25 41.5697 44.3414 42.5918 42.5527C43.0121 41.8173 43.3682 40.9559 43.6426 40H44.4219C43.4589 43.5473 41.3934 46 39 46C35.6863 46 33 41.299 33 35.5C33 29.701 35.6863 25 39 25Z" fill="white"/>
<path d="M60.7838 34.3768C60.7605 34.5983 60.9341 34.7911 61.1567 34.7911H63.2234C63.5101 34.7911 63.6908 35.0998 63.5504 35.3498L58.9331 43.5689C58.7335 43.924 58.1905 43.7511 58.2332 43.3459L58.9397 36.6341C58.963 36.4127 58.7894 36.2198 58.5668 36.2198H56.501C56.2143 36.2198 56.0337 35.9111 56.1741 35.6612L60.7904 27.4424C60.9899 27.0872 61.533 27.2601 61.4903 27.6653L60.7838 34.3768Z" fill="#11437A"/>
<path d="M60.7904 27.4424L60.4635 27.2587L60.7904 27.4424ZM58.9331 43.5689L58.6061 43.3852L58.9331 43.5689ZM60.7838 34.3768L60.4109 34.3376L60.7838 34.3768ZM61.1567 34.7911V35.1661H63.2234V34.7911V34.4161H61.1567V34.7911ZM63.5504 35.3498L63.2234 35.1661L58.6061 43.3852L58.9331 43.5689L59.26 43.7525L63.8773 35.5334L63.5504 35.3498ZM58.2332 43.3459L58.6061 43.3852L59.3127 36.6733L58.9397 36.6341L58.5668 36.5948L57.8602 43.3067L58.2332 43.3459ZM58.5668 36.2198V35.8448H56.501V36.2198V36.5948H58.5668V36.2198ZM56.1741 35.6612L56.501 35.8448L61.1174 27.626L60.7904 27.4424L60.4635 27.2587L55.8471 35.4775L56.1741 35.6612ZM61.4903 27.6653L61.1174 27.626L60.4109 34.3376L60.7838 34.3768L61.1567 34.4161L61.8632 27.7045L61.4903 27.6653ZM60.7904 27.4424L61.1174 27.626V27.626L61.4903 27.6653L61.8632 27.7045C61.9485 26.8943 60.8625 26.5484 60.4635 27.2587L60.7904 27.4424ZM56.501 36.2198V35.8448H56.501L56.1741 35.6612L55.8471 35.4775C55.5663 35.9775 55.9276 36.5948 56.501 36.5948V36.2198ZM58.9397 36.6341L59.3127 36.6733C59.3593 36.2305 59.0121 35.8448 58.5668 35.8448V36.2198V36.5948L58.5668 36.5948L58.9397 36.6341ZM58.9331 43.5689L58.6061 43.3852L58.6061 43.3852L58.2332 43.3459L57.8602 43.3067C57.775 44.1169 58.861 44.4629 59.26 43.7525L58.9331 43.5689ZM63.2234 34.7911V35.1661L63.5504 35.3498L63.8773 35.5334C64.1582 35.0335 63.7969 34.4161 63.2234 34.4161V34.7911ZM61.1567 34.7911V34.4161V34.4161L60.7838 34.3768L60.4109 34.3376C60.3642 34.7804 60.7115 35.1661 61.1567 35.1661V34.7911Z" fill="white"/>
</svg>
