<svg width="32" height="33" viewBox="0 0 32 33" fill="none" xmlns="http://www.w3.org/2000/svg">
<circle cx="16" cy="16.5" r="15.5" stroke="#86A0D6"/>
<path d="M19.7335 22.1001L19.8903 21.6254L19.6723 21.5533L19.4756 21.6718L19.7335 22.1001ZM21.6001 20.2335L21.179 19.964L21.0501 20.1653L21.1259 20.392L21.6001 20.2335ZM22.5335 23.0249L22.3767 23.4997C22.5563 23.559 22.7541 23.5119 22.8877 23.3778C23.0212 23.2438 23.0677 23.0458 23.0077 22.8664L22.5335 23.0249ZM19.4756 21.6718C18.5896 22.2052 17.1686 22.5249 16.0001 22.5249V23.5249C17.2975 23.5249 18.9099 23.1796 19.9914 22.5285L19.4756 21.6718ZM16.0001 22.5249C12.6677 22.5249 9.9668 19.8254 9.9668 16.4959H8.9668C8.9668 20.3783 12.116 23.5249 16.0001 23.5249V22.5249ZM9.9668 16.4959C9.9668 13.1664 12.6677 10.4668 16.0001 10.4668V9.4668C12.116 9.4668 8.9668 12.6136 8.9668 16.4959H9.9668ZM16.0001 10.4668C19.3326 10.4668 22.0335 13.1664 22.0335 16.4959H23.0335C23.0335 12.6136 19.8842 9.4668 16.0001 9.4668V10.4668ZM22.0335 16.4959C22.0335 17.7343 21.7581 19.0588 21.179 19.964L22.0213 20.5029C22.7395 19.3804 23.0335 17.8449 23.0335 16.4959H22.0335ZM19.5767 22.5749L22.3767 23.4997L22.6903 22.5501L19.8903 21.6254L19.5767 22.5749ZM23.0077 22.8664L22.0743 20.0749L21.1259 20.392L22.0593 23.1835L23.0077 22.8664Z" fill="white"/>
</svg>
