<svg width="70" height="70" viewBox="0 0 70 70" fill="none" xmlns="http://www.w3.org/2000/svg">
<circle cx="35" cy="35" r="34.625" stroke="white" stroke-width="0.75"/>
<rect x="33.5" y="25.4247" width="2.25" height="6" fill="#11437A"/>
<ellipse cx="20.75" cy="38.1747" rx="5.25" ry="9.75" fill="#11437A"/>
<ellipse cx="19.25" cy="38.1747" rx="5.25" ry="9.75" fill="#11437A"/>
<ellipse cx="14.75" cy="38.1747" rx="4.5" ry="9.75" fill="#11437A"/>
<rect x="14.75" y="28.4247" width="6" height="19.5" fill="#11437A"/>
<rect x="23.75" y="31.4247" width="24" height="13.5" fill="#11437A"/>
<ellipse cx="54.5" cy="38.1747" rx="5.25" ry="9.75" fill="#11437A"/>
<ellipse cx="53" cy="38.1747" rx="5.25" ry="9.75" fill="#11437A"/>
<ellipse cx="48.5" cy="38.1747" rx="4.5" ry="9.75" fill="#11437A"/>
<rect x="48.5" y="28.4247" width="6" height="19.5" fill="#11437A"/>
<path d="M15.125 28.4246C13.9818 28.4246 12.7743 29.3016 11.8086 31.1042C10.8598 32.8754 10.25 35.3738 10.25 38.1746C10.25 40.9753 10.8598 43.4737 11.8086 45.2449C12.7743 47.0475 13.9818 47.9246 15.125 47.9246V48.6746C12.0184 48.6746 9.5 43.9736 9.5 38.1746C9.5 32.3756 12.0184 27.6746 15.125 27.6746V28.4246Z" fill="white"/>
<rect x="15.125" y="27.6747" width="5.625" height="0.75" fill="white"/>
<rect x="15.125" y="47.9247" width="5.625" height="0.75" fill="white"/>
<path d="M54.125 30.2997C55.0455 30.2997 55.9795 31.0557 56.7061 32.5087C57.4214 33.9393 57.875 35.9421 57.875 38.1747C57.875 40.4073 57.4214 42.41 56.7061 43.8407C55.9795 45.2937 55.0455 46.0497 54.125 46.0497C53.2045 46.0497 52.2705 45.2937 51.5439 43.8407C50.8286 42.41 50.375 40.4073 50.375 38.1747C50.375 35.9421 50.8286 33.9393 51.5439 32.5087C52.2705 31.0557 53.2045 30.2997 54.125 30.2997Z" stroke="white" stroke-width="0.75"/>
<path d="M54.125 27.6747C57.4387 27.6747 60.125 32.3757 60.125 38.1747C60.125 43.9737 57.4387 48.6747 54.125 48.6747C50.8113 48.6747 48.125 43.9737 48.125 38.1747C48.125 32.3757 50.8113 27.6747 54.125 27.6747ZM54.125 28.4247C52.8534 28.4247 51.5553 29.3332 50.5332 31.1219C49.5232 32.8895 48.875 35.3815 48.875 38.1747C48.875 40.9678 49.5232 43.4599 50.5332 45.2274C51.5553 47.0161 52.8534 47.9247 54.125 47.9247C55.3966 47.9247 56.6947 47.0161 57.7168 45.2274C58.7268 43.4599 59.375 40.9678 59.375 38.1747C59.375 35.3815 58.7268 32.8895 57.7168 31.1219C56.6947 29.3332 55.3966 28.4247 54.125 28.4247Z" fill="white"/>
<path d="M48.875 28.4246C47.7318 28.4246 46.5243 29.3016 45.5586 31.1042C44.6098 32.8754 44 35.3738 44 38.1746C44 40.9753 44.6098 43.4737 45.5586 45.2449C46.5243 47.0475 47.7318 47.9246 48.875 47.9246V48.6746C45.7684 48.6746 43.25 43.9736 43.25 38.1746C43.25 32.3756 45.7684 27.6746 48.875 27.6746V28.4246Z" fill="white"/>
<rect x="48.875" y="27.6747" width="5.625" height="0.75" fill="white"/>
<rect x="48.875" y="47.9247" width="5.625" height="0.75" fill="white"/>
<path d="M21.5 31.7997C20.8815 31.7997 20.1413 32.2901 19.5117 33.4862C18.9005 34.6477 18.5 36.3041 18.5 38.1747C18.5 40.0453 18.9005 41.7017 19.5117 42.8632C20.1413 44.0593 20.8815 44.5497 21.5 44.5497V45.2997C19.4289 45.2997 17.75 42.1097 17.75 38.1747C17.75 34.2397 19.4289 31.0497 21.5 31.0497V31.7997Z" fill="white"/>
<rect x="21.5" y="31.0497" width="23.25" height="0.75" fill="white"/>
<rect x="21.5" y="44.5497" width="23.25" height="0.75" fill="white"/>
<path d="M20.375 27.6747C22.2198 27.6747 23.8691 29.1323 24.9697 31.4247H24.1318C24.0778 31.3217 24.0231 31.2205 23.9668 31.1219C22.9447 29.3332 21.6466 28.4247 20.375 28.4247C19.1034 28.4247 17.8053 29.3332 16.7832 31.1219C15.7732 32.8895 15.125 35.3815 15.125 38.1747C15.125 40.9678 15.7732 43.4599 16.7832 45.2274C17.8053 47.0161 19.1034 47.9247 20.375 47.9247C21.6466 47.9247 22.9447 47.0161 23.9668 45.2274C24.0231 45.1288 24.0778 45.0277 24.1318 44.9247H24.9697C23.8691 47.2171 22.2198 48.6747 20.375 48.6747C17.0613 48.6747 14.375 43.9737 14.375 38.1747C14.375 32.3757 17.0613 27.6747 20.375 27.6747Z" fill="white"/>
<path d="M33.5 25.4247V25.0497H33.125V25.4247H33.5ZM35.75 25.4247H36.125V25.0497H35.75V25.4247ZM33.5 25.4247V25.7997H35.75V25.4247V25.0497H33.5V25.4247ZM35.75 25.4247H35.375V31.4247H35.75H36.125V25.4247H35.75ZM33.5 31.4247H33.875V25.4247H33.5H33.125V31.4247H33.5Z" fill="white"/>
<circle cx="34.625" cy="19.4247" r="6.375" fill="#11437A" stroke="white" stroke-width="0.75"/>
<circle cx="34.625" cy="22.4247" r="1.125" stroke="white" stroke-width="0.75"/>
<path d="M34.625 20.9247V17.1747" stroke="white" stroke-width="0.75" stroke-linecap="round"/>
<path d="M29.375 19.4247L30.125 19.4247" stroke="white" stroke-width="0.75" stroke-linecap="round"/>
<path d="M39.125 19.4247L39.875 19.4247" stroke="white" stroke-width="0.75" stroke-linecap="round"/>
<path d="M34.625 14.9247V14.1747" stroke="white" stroke-width="0.75" stroke-linecap="round"/>
<path d="M30.9126 15.7123L31.4429 16.2426" stroke="white" stroke-width="0.75" stroke-linecap="round"/>
<path d="M37.8071 16.2427L38.3375 15.7123" stroke="white" stroke-width="0.75" stroke-linecap="round"/>
</svg>
