<svg width="70" height="70" viewBox="0 0 70 70" fill="none" xmlns="http://www.w3.org/2000/svg">
<circle cx="35" cy="35" r="34.625" stroke="white" stroke-width="0.75"/>
<ellipse cx="25.5" cy="24.625" rx="5.25" ry="9.75" transform="rotate(-90 25.5 24.625)" fill="#11437A"/>
<ellipse cx="25.5" cy="26.125" rx="5.25" ry="9.75" transform="rotate(-90 25.5 26.125)" fill="#11437A"/>
<ellipse cx="25.5" cy="45.625" rx="4.5" ry="9.75" transform="rotate(-90 25.5 45.625)" fill="#11437A"/>
<rect x="15.7505" y="46.75" width="22.5" height="19.5" transform="rotate(-90 15.7505 46.75)" fill="#11437A"/>
<path d="M15 25C15 21.6863 19.701 19 25.5 19C31.299 19 36 21.6863 36 25C36 28.3137 31.299 31 25.5 31C19.701 31 15 28.3137 15 25ZM15.75 25C15.75 26.2716 16.6586 27.5697 18.4473 28.5918C20.2148 29.6018 22.7068 30.25 25.5 30.25C28.2932 30.25 30.7852 29.6018 32.5527 28.5918C34.3414 27.5697 35.25 26.2716 35.25 25C35.25 23.7284 34.3414 22.4303 32.5527 21.4082C30.7852 20.3982 28.2932 19.75 25.5 19.75C22.7068 19.75 20.2148 20.3982 18.4473 21.4082C16.6586 22.4303 15.75 23.7284 15.75 25Z" fill="white"/>
<path d="M15.75 45.25C15.75 46.3932 16.6271 47.6007 18.4297 48.5664C20.2009 49.5152 22.6993 50.125 25.5 50.125C28.3007 50.125 30.7991 49.5152 32.5703 48.5664C34.3729 47.6007 35.25 46.3932 35.25 45.25L35.999 45.25L35.999 45.2295C35.9991 45.2363 36 45.2432 36 45.25C36 48.3566 31.299 50.875 25.5 50.875C19.701 50.875 15 48.3566 15 45.25L15.75 45.25Z" fill="white"/>
<path d="M15.75 38.5C15.75 39.6432 16.6271 40.8507 18.4297 41.8164C20.2009 42.7652 22.6993 43.375 25.5 43.375C28.3007 43.375 30.7991 42.7652 32.5703 41.8164C34.3729 40.8507 35.25 39.6432 35.25 38.5L35.999 38.5L35.999 38.4795C35.9991 38.4863 36 38.4932 36 38.5C36 41.6066 31.299 44.125 25.5 44.125C19.701 44.125 15 41.6066 15 38.5L15.75 38.5Z" fill="white"/>
<path d="M15.75 32.5C15.75 33.6432 16.6271 34.8507 18.4297 35.8164C20.2009 36.7652 22.6993 37.375 25.5 37.375C28.3007 37.375 30.7991 36.7652 32.5703 35.8164C34.3729 34.8507 35.25 33.6432 35.25 32.5L35.999 32.5L35.999 32.4795C35.9991 32.4863 36 32.4932 36 32.5C36 35.6066 31.299 38.125 25.5 38.125C19.701 38.125 15 35.6066 15 32.5L15.75 32.5Z" fill="white"/>
<rect x="15" y="45.625" width="21" height="0.75" transform="rotate(-90 15 45.625)" fill="white"/>
<rect x="35.25" y="45.625" width="21" height="0.75" transform="rotate(-90 35.25 45.625)" fill="white"/>
<circle cx="25.5" cy="40.375" r="6.375" fill="#11437A" stroke="white" stroke-width="0.75"/>
<path fill-rule="evenodd" clip-rule="evenodd" d="M22.8225 41.328C22.8225 39.5633 25.0547 36.4751 25.5011 36.4751C25.9475 36.4751 28.1797 39.5633 28.1797 41.328C28.1797 42.7897 26.9801 43.9751 25.5011 43.9751C24.0221 43.9751 22.8225 42.7897 22.8225 41.328Z" fill="#11437A" stroke="white" stroke-width="0.75" stroke-linecap="square"/>
<path d="M24.1617 41.1231C24.1617 41.9583 24.7615 42.6357 25.501 42.6357" stroke="white" stroke-width="0.75" stroke-linecap="round"/>
<path d="M25.5 26.125C25.9598 26.125 26.3948 26.2169 26.7285 26.3838C27.0398 26.5394 27.375 26.8243 27.375 27.25C27.375 27.6757 27.0398 27.9606 26.7285 28.1162C26.3948 28.2831 25.9598 28.375 25.5 28.375C25.0402 28.375 24.6052 28.2831 24.2715 28.1162C23.9602 27.9606 23.625 27.6757 23.625 27.25C23.625 26.8243 23.9602 26.5394 24.2715 26.3838C24.6052 26.2169 25.0402 26.125 25.5 26.125Z" stroke="white" stroke-width="0.75"/>
<rect x="45" y="21.875" width="2.25" height="5.25" fill="#11437A" stroke="white" stroke-width="0.75"/>
<path d="M42 25.625H50.25C51.6997 25.625 52.875 26.8003 52.875 28.25V47C52.875 48.4497 51.6997 49.625 50.25 49.625H42C40.5503 49.625 39.375 48.4497 39.375 47V28.25C39.375 26.8003 40.5503 25.625 42 25.625Z" fill="#11437A" stroke="white" stroke-width="0.75"/>
<rect x="43.875" y="21.875" width="1.5" height="4.5" rx="0.75" transform="rotate(-90 43.875 21.875)" fill="#11437A" stroke="white" stroke-width="0.75"/>
<circle cx="46.125" cy="26.75" r="3.375" transform="rotate(-90 46.125 26.75)" fill="#11437A" stroke="white" stroke-width="0.75"/>
<path d="M47.625 26.75L46.125 26.75" stroke="white" stroke-width="0.75" stroke-linecap="round"/>
</svg>
