<svg width="70" height="70" viewBox="0 0 70 70" fill="none" xmlns="http://www.w3.org/2000/svg">
<circle cx="35" cy="35" r="34.625" stroke="white" stroke-width="0.75"/>
<ellipse cx="48.375" cy="35.5" rx="5.25" ry="9.75" fill="#11437A"/>
<ellipse cx="55.5" cy="35.5" rx="4.125" ry="7.5" fill="#11437A"/>
<ellipse cx="46.875" cy="35.5" rx="5.25" ry="9.75" fill="#11437A"/>
<ellipse cx="17.25" cy="35.5" rx="4.875" ry="9.75" fill="#11437A"/>
<rect x="17.625" y="25.75" width="30" height="4.5" fill="#11437A"/>
<rect x="17.625" y="40.75" width="30" height="4.5" fill="#11437A"/>
<rect x="17.625" y="25.75" width="27" height="19.5" fill="#11437A"/>
<path d="M17.25 24.9999C20.3566 24.9999 22.875 29.7009 22.875 35.4999C22.875 41.2989 20.3566 45.9999 17.25 45.9999C14.1434 45.9999 11.625 41.2989 11.625 35.4999C11.625 29.7009 14.1434 24.9999 17.25 24.9999ZM17.25 25.7499C16.1068 25.7499 14.8993 26.6269 13.9336 28.4296C12.9848 30.2007 12.375 32.6991 12.375 35.4999C12.375 38.3006 12.9848 40.799 13.9336 42.5702C14.8993 44.3728 16.1068 45.2499 17.25 45.2499C18.3932 45.2499 19.6007 44.3728 20.5664 42.5702C21.5152 40.799 22.125 38.3006 22.125 35.4999C22.125 32.6991 21.5152 30.2007 20.5664 28.4296C19.6007 26.6269 18.3932 25.7499 17.25 25.7499Z" fill="white"/>
<rect x="17.625" y="25" width="7.5" height="21" fill="#11437A"/>
<rect x="16.875" y="25" width="31.5" height="0.75" fill="white"/>
<rect x="49.125" y="28" width="5.25" height="1.5" fill="#11437A"/>
<rect x="49.875" y="41.5" width="5.25" height="1.5" fill="#11437A"/>
<rect x="16.875" y="45.25" width="31.5" height="0.75" fill="white"/>
<path d="M55.5 29.875C55.7383 29.875 55.9947 29.984 56.2607 30.2412C56.5286 30.5002 56.7876 30.8928 57.0127 31.4072C57.4625 32.4353 57.75 33.8824 57.75 35.5C57.75 37.1176 57.4625 38.5647 57.0127 39.5928C56.7876 40.1072 56.5286 40.4998 56.2607 40.7588C55.9947 41.016 55.7383 41.125 55.5 41.125C55.2617 41.125 55.0053 41.016 54.7393 40.7588C54.4714 40.4998 54.2124 40.1072 53.9873 39.5928C53.5375 38.5647 53.25 37.1176 53.25 35.5C53.25 33.8824 53.5375 32.4353 53.9873 31.4072C54.2124 30.8928 54.4714 30.5002 54.7393 30.2412C55.0053 29.984 55.2617 29.875 55.5 29.875Z" stroke="white" stroke-width="0.75"/>
<path d="M55.5 27.625C56.4205 27.625 57.3545 28.381 58.0811 29.834C58.7964 31.2646 59.25 33.2674 59.25 35.5C59.25 37.7326 58.7964 39.7354 58.0811 41.166C57.3545 42.619 56.4205 43.375 55.5 43.375C54.5795 43.375 53.6455 42.619 52.9189 41.166C52.2036 39.7354 51.75 37.7326 51.75 35.5C51.75 33.2674 52.2036 31.2646 52.9189 29.834C53.6455 28.381 54.5795 27.625 55.5 27.625Z" stroke="white" stroke-width="0.75"/>
<path d="M48 25C49.401 25 50.6879 25.8417 51.709 27.25H50.7588C49.9075 26.2543 48.9468 25.75 48 25.75C46.7284 25.75 45.4303 26.6586 44.4082 28.4473C43.3982 30.2148 42.75 32.7068 42.75 35.5C42.75 38.2932 43.3982 40.7852 44.4082 42.5527C45.4303 44.3414 46.7284 45.25 48 45.25C48.9468 45.25 49.9075 44.7457 50.7588 43.75H51.709C50.6879 45.1583 49.401 46 48 46C44.6863 46 42 41.299 42 35.5C42 29.701 44.6863 25 48 25Z" fill="white"/>
<rect x="44.625" y="27.25" width="10.5" height="0.75" fill="white"/>
<rect x="44.625" y="43" width="10.5" height="0.75" fill="white"/>
</svg>
