<svg width="54" height="54" viewBox="0 0 54 54" fill="none" xmlns="http://www.w3.org/2000/svg">
<circle cx="27" cy="27" r="25.5" fill="white" stroke="#6585CB" stroke-width="3"/>
<path d="M27 17.4992C27.2761 17.4992 27.5 17.7231 27.5 17.9992V26.4992H36C36.2761 26.4992 36.5 26.7231 36.5 26.9992C36.5 27.2753 36.2761 27.4992 36 27.4992H27.5V35.9992C27.5 36.2753 27.2761 36.4992 27 36.4992C26.7239 36.4992 26.5 36.2753 26.5 35.9992V27.4992H18C17.7239 27.4992 17.5 27.2753 17.5 26.9992C17.5 26.7231 17.7239 26.4992 18 26.4992H26.5V17.9992C26.5 17.7231 26.7239 17.4992 27 17.4992Z" fill="#101011"/>
</svg>
