<svg width="70" height="70" viewBox="0 0 70 70" fill="none" xmlns="http://www.w3.org/2000/svg">
<g clip-path="url(#clip0_1033_368)">
<circle cx="35" cy="35" r="34.625" stroke="white" stroke-width="0.75"/>
<ellipse cx="11.25" cy="29.5" rx="5.25" ry="9.75" fill="#11437A"/>
<ellipse cx="9.75" cy="29.5" rx="5.25" ry="9.75" fill="#11437A"/>
<rect x="8.25" y="22.75" width="20.25" height="13.5" fill="#11437A"/>
<ellipse cx="31.5" cy="29.5" rx="5.25" ry="9.75" fill="#11437A"/>
<ellipse cx="30" cy="29.5" rx="5.25" ry="9.75" fill="#11437A"/>
<ellipse cx="25.5" cy="29.5" rx="4.5" ry="9.75" fill="#11437A"/>
<rect x="25.5" y="19.75" width="6" height="19.5" fill="#11437A"/>
<path d="M31.125 21.625C32.0455 21.625 32.9795 22.381 33.7061 23.834C34.4214 25.2646 34.875 27.2674 34.875 29.5C34.875 31.7326 34.4214 33.7354 33.7061 35.166C32.9795 36.619 32.0455 37.375 31.125 37.375C30.2045 37.375 29.2705 36.619 28.5439 35.166C27.8286 33.7354 27.375 31.7326 27.375 29.5C27.375 27.2674 27.8286 25.2646 28.5439 23.834C29.2705 22.381 30.2045 21.625 31.125 21.625Z" stroke="white" stroke-width="0.75"/>
<path d="M31.125 19C34.4387 19 37.125 23.701 37.125 29.5C37.125 35.299 34.4387 40 31.125 40C27.8113 40 25.125 35.299 25.125 29.5C25.125 23.701 27.8113 19 31.125 19ZM31.125 19.75C29.8534 19.75 28.5553 20.6586 27.5332 22.4473C26.5232 24.2148 25.875 26.7068 25.875 29.5C25.875 32.2932 26.5232 34.7852 27.5332 36.5527C28.5553 38.3414 29.8534 39.25 31.125 39.25C32.3966 39.25 33.6947 38.3414 34.7168 36.5527C35.7268 34.7852 36.375 32.2932 36.375 29.5C36.375 26.7068 35.7268 24.2148 34.7168 22.4473C33.6947 20.6586 32.3966 19.75 31.125 19.75Z" fill="white"/>
<path d="M25.875 19.7499C24.7318 19.7499 23.5243 20.6269 22.5586 22.4296C21.6098 24.2007 21 26.6991 21 29.4999C21 32.3006 21.6098 34.799 22.5586 36.5702C23.5243 38.3728 24.7318 39.2499 25.875 39.2499V39.9999C22.7684 39.9999 20.25 35.2989 20.25 29.4999C20.25 23.7009 22.7684 18.9999 25.875 18.9999V19.7499Z" fill="white"/>
<rect x="25.875" y="19" width="5.625" height="0.75" fill="white"/>
<rect x="25.875" y="39.25" width="5.625" height="0.75" fill="white"/>
<path d="M12 23.125C11.3815 23.125 10.6413 23.6154 10.0117 24.8115C9.40052 25.973 9 27.6294 9 29.5C9 31.3706 9.40052 33.027 10.0117 34.1885C10.6413 35.3846 11.3815 35.875 12 35.875V36.625C9.92893 36.625 8.25 33.435 8.25 29.5C8.25 25.565 9.92893 22.375 12 22.375V23.125Z" fill="white"/>
<rect x="12" y="22.38" width="10" height="0.75" fill="white"/>
<rect x="12" y="35.87" width="10" height="0.75" fill="white"/>
<path d="M35.25 26.125C42.0845 26.125 47.625 31.6655 47.625 38.5V51.25H40.875V38.5C40.875 35.3934 38.3566 32.875 35.25 32.875H26.9688C26.7648 30.6295 26.7648 28.3705 26.9688 26.125H35.25Z" fill="#11437A" stroke="white" stroke-width="0.75"/>
<rect x="26.4004" y="25.75" width="1.35" height="7.5" fill="#11437A"/>
<path d="M31.125 21.625C32.0455 21.625 32.9795 22.381 33.7061 23.834C34.4214 25.2646 34.875 27.2674 34.875 29.5C34.875 31.7326 34.4214 33.7354 33.7061 35.166C32.9795 36.619 32.0455 37.375 31.125 37.375C30.2045 37.375 29.2705 36.619 28.5439 35.166C27.8286 33.7354 27.375 31.7326 27.375 29.5C27.375 27.2674 27.8286 25.2646 28.5439 23.834C29.2705 22.381 30.2045 21.625 31.125 21.625Z" stroke="white" stroke-width="0.75"/>
<rect x="33.75" y="26.5" width="1.5" height="6" fill="#11437A"/>
<path d="M45.375 50.5L48.375 49L49.5 50.125L48.375 51.625L46.875 52.375L42.75 53.125L39.375 50.875L39.75 49.375L40.5 49L42.75 50.125L44.25 50.5H45.375Z" fill="#11437A"/>
<path d="M42.2583 49.933C42.2583 49.933 45.3485 51.2263 47.8207 48.9209C47.8207 48.9209 51.529 44.4789 56.2486 48.3024" stroke="white" stroke-width="0.75" stroke-miterlimit="10" stroke-linecap="round"/>
<path d="M40.6769 48.9209L40.4211 49.1952L40.404 49.1792L40.389 49.1612L40.6769 48.9209ZM32.485 48.5938C32.3241 48.7241 32.088 48.6994 31.9576 48.5384C31.8272 48.3775 31.852 48.1414 32.0129 48.011L32.485 48.5938ZM46.2393 49.933C46.384 50.2789 46.3839 50.279 46.3837 50.2791C46.3836 50.2791 46.3834 50.2792 46.3833 50.2793C46.383 50.2794 46.3826 50.2795 46.3822 50.2797C46.3814 50.28 46.3804 50.2804 46.3793 50.2809C46.3769 50.2819 46.3738 50.2831 46.37 50.2847C46.3623 50.2878 46.3517 50.292 46.3382 50.2971C46.3113 50.3074 46.2729 50.3217 46.2241 50.3385C46.1265 50.3722 45.9867 50.4167 45.812 50.462C45.4633 50.5525 44.9717 50.6476 44.3973 50.6663C43.2457 50.7037 41.7485 50.433 40.4211 49.1952L40.6769 48.9209L40.9326 48.6466C42.0774 49.7142 43.3614 49.9495 44.3729 49.9167C44.8801 49.9002 45.3156 49.816 45.6236 49.7361C45.7772 49.6962 45.8981 49.6576 45.9792 49.6296C46.0197 49.6156 46.0502 49.6043 46.0697 49.5968C46.0795 49.5931 46.0865 49.5903 46.0907 49.5886C46.0927 49.5878 46.0941 49.5872 46.0948 49.587C46.0951 49.5868 46.0952 49.5868 46.0952 49.5868C46.0952 49.5868 46.0951 49.5868 46.095 49.5869C46.0949 49.5869 46.0948 49.587 46.0948 49.587C46.0946 49.587 46.0945 49.5871 46.2393 49.933ZM40.6769 48.9209C40.389 49.1612 40.3891 49.1614 40.3892 49.1615C40.3892 49.1615 40.3893 49.1616 40.3893 49.1616C40.3894 49.1617 40.3894 49.1617 40.3893 49.1616C40.3892 49.1615 40.3888 49.1611 40.3883 49.1604C40.3872 49.1591 40.3852 49.1568 40.3823 49.1534C40.3766 49.1468 40.3674 49.1363 40.3548 49.1222C40.3295 49.094 40.2908 49.0518 40.2392 48.9986C40.1358 48.8922 39.9815 48.7422 39.7814 48.5728C39.38 48.233 38.8016 47.8213 38.0884 47.5239C37.3771 47.2273 36.5365 47.0462 35.6016 47.1583C34.6684 47.2702 33.6167 47.677 32.485 48.5938L32.249 48.3024L32.0129 48.011C33.241 47.0161 34.4227 46.5443 35.5123 46.4136C36.6 46.2832 37.5714 46.4958 38.3771 46.8317C39.181 47.1669 39.8246 47.6267 40.266 48.0004C40.4873 48.1877 40.6595 48.3548 40.7774 48.4764C40.8364 48.5372 40.8819 48.5867 40.9134 48.6217C40.9291 48.6392 40.9413 48.6532 40.9498 48.6631C40.9541 48.6681 40.9575 48.6721 40.96 48.675C40.9613 48.6764 40.9623 48.6777 40.9631 48.6786C40.9634 48.6791 40.9638 48.6795 40.9641 48.6798C40.9642 48.68 40.9644 48.6802 40.9644 48.6802C40.9646 48.6804 40.9647 48.6806 40.6769 48.9209Z" fill="white"/>
<path d="M42.2593 55.1833C42.2593 55.1833 45.3495 56.4765 47.8217 54.1711C47.8217 54.1711 51.53 49.7291 56.2496 53.5526" stroke="white" stroke-width="0.75" stroke-miterlimit="10" stroke-linecap="round"/>
<path d="M40.6773 54.171L40.4216 54.4453L40.4045 54.4293L40.3895 54.4113L40.6773 54.171ZM32.4855 53.8439C32.3246 53.9743 32.0884 53.9495 31.9581 53.7886C31.8277 53.6276 31.8525 53.3915 32.0134 53.2611L32.4855 53.8439ZM46.2397 55.1831C46.3845 55.5291 46.3843 55.5291 46.3842 55.5292C46.3841 55.5292 46.3839 55.5293 46.3838 55.5294C46.3834 55.5295 46.3831 55.5297 46.3827 55.5298C46.3819 55.5301 46.3809 55.5306 46.3797 55.531C46.3774 55.532 46.3743 55.5333 46.3705 55.5348C46.3628 55.5379 46.3522 55.5421 46.3387 55.5472C46.3117 55.5576 46.2734 55.5718 46.2246 55.5886C46.127 55.6224 45.9872 55.6668 45.8125 55.7122C45.4638 55.8027 44.9722 55.8977 44.3978 55.9164C43.2462 55.9538 41.749 55.6831 40.4216 54.4453L40.6773 54.171L40.9331 53.8968C42.0778 54.9643 43.3618 55.1997 44.3734 55.1668C44.8806 55.1503 45.3161 55.0661 45.6241 54.9862C45.7777 54.9463 45.8986 54.9078 45.9797 54.8798C46.0202 54.8658 46.0507 54.8544 46.0702 54.847C46.08 54.8432 46.087 54.8404 46.0911 54.8388C46.0932 54.8379 46.0946 54.8374 46.0952 54.8371C46.0956 54.837 46.0957 54.8369 46.0957 54.8369C46.0956 54.8369 46.0956 54.837 46.0955 54.837C46.0954 54.837 46.0953 54.8371 46.0953 54.8371C46.0951 54.8371 46.095 54.8372 46.2397 55.1831ZM40.6773 54.171C40.3895 54.4113 40.3896 54.4115 40.3897 54.4116C40.3897 54.4116 40.3898 54.4117 40.3898 54.4117C40.3898 54.4118 40.3898 54.4118 40.3898 54.4117C40.3897 54.4116 40.3893 54.4112 40.3888 54.4105C40.3877 54.4092 40.3857 54.4069 40.3828 54.4036C40.3771 54.3969 40.3679 54.3864 40.3552 54.3723C40.33 54.3442 40.2913 54.302 40.2397 54.2488C40.1363 54.1423 39.982 53.9923 39.7819 53.8229C39.3805 53.4831 38.8021 53.0714 38.0889 52.7741C37.3776 52.4774 36.537 52.2964 35.602 52.4084C34.6689 52.5203 33.6172 52.9271 32.4855 53.8439L32.2495 53.5525L32.0134 53.2611C33.2415 52.2662 34.4232 51.7944 35.5128 51.6638C36.6005 51.5334 37.5719 51.7459 38.3776 52.0818C39.1814 52.417 39.8251 52.8769 40.2665 53.2505C40.4878 53.4378 40.66 53.605 40.7779 53.7265C40.8369 53.7873 40.8824 53.8368 40.9138 53.8718C40.9296 53.8894 40.9417 53.9033 40.9503 53.9132C40.9546 53.9182 40.958 53.9222 40.9605 53.9251C40.9617 53.9266 40.9628 53.9278 40.9635 53.9287C40.9639 53.9292 40.9643 53.9296 40.9646 53.9299C40.9647 53.9301 40.9649 53.9303 40.9649 53.9304C40.9651 53.9305 40.9652 53.9307 40.6773 54.171Z" fill="white"/>
</g>
<defs>
<clipPath id="clip0_1033_368">
<rect width="70" height="70" fill="white"/>
</clipPath>
</defs>
</svg>
