<svg width="70" height="70" viewBox="0 0 70 70" fill="none" xmlns="http://www.w3.org/2000/svg">
<circle cx="35" cy="35" r="34.625" stroke="white" stroke-width="0.75"/>
<ellipse cx="24.25" cy="34.5" rx="5.25" ry="9.75" fill="#11437A"/>
<ellipse cx="22.75" cy="34.5" rx="5.25" ry="9.75" fill="#11437A"/>
<ellipse cx="18.25" cy="34.5" rx="4.5" ry="9.75" fill="#11437A"/>
<rect x="18.25" y="24.75" width="6" height="19.5" fill="#11437A"/>
<rect x="27.25" y="27.75" width="20.25" height="13.5" fill="#11437A"/>
<ellipse cx="50.5" cy="34.5" rx="5.25" ry="9.75" fill="#11437A"/>
<ellipse cx="49" cy="34.5" rx="5.25" ry="9.75" fill="#11437A"/>
<ellipse cx="44.5" cy="34.5" rx="4.5" ry="9.75" fill="#11437A"/>
<rect x="44.5" y="24.75" width="6" height="19.5" fill="#11437A"/>
<path d="M18.625 24.7499C17.4818 24.7499 16.2743 25.6269 15.3086 27.4296C14.3598 29.2007 13.75 31.6991 13.75 34.4999C13.75 37.3006 14.3598 39.799 15.3086 41.5702C16.2743 43.3728 17.4818 44.2499 18.625 44.2499V44.9999C15.5184 44.9999 13 40.2989 13 34.4999C13 28.7009 15.5184 23.9999 18.625 23.9999V24.7499Z" fill="white"/>
<rect x="18.625" y="24" width="5.625" height="0.75" fill="white"/>
<rect x="18.625" y="44.25" width="5.625" height="0.75" fill="white"/>
<path d="M50.125 26.625C51.0455 26.625 51.9795 27.381 52.7061 28.834C53.4214 30.2646 53.875 32.2674 53.875 34.5C53.875 36.7326 53.4214 38.7354 52.7061 40.166C51.9795 41.619 51.0455 42.375 50.125 42.375C49.2045 42.375 48.2705 41.619 47.5439 40.166C46.8286 38.7354 46.375 36.7326 46.375 34.5C46.375 32.2674 46.8286 30.2646 47.5439 28.834C48.2705 27.381 49.2045 26.625 50.125 26.625Z" stroke="white" stroke-width="0.75"/>
<path d="M50.125 24C53.4387 24 56.125 28.701 56.125 34.5C56.125 40.299 53.4387 45 50.125 45C46.8113 45 44.125 40.299 44.125 34.5C44.125 28.701 46.8113 24 50.125 24ZM50.125 24.75C48.8534 24.75 47.5553 25.6586 46.5332 27.4473C45.5232 29.2148 44.875 31.7068 44.875 34.5C44.875 37.2932 45.5232 39.7852 46.5332 41.5527C47.5553 43.3414 48.8534 44.25 50.125 44.25C51.3966 44.25 52.6947 43.3414 53.7168 41.5527C54.7268 39.7852 55.375 37.2932 55.375 34.5C55.375 31.7068 54.7268 29.2148 53.7168 27.4473C52.6947 25.6586 51.3966 24.75 50.125 24.75Z" fill="white"/>
<path d="M44.875 24.7499C43.7318 24.7499 42.5243 25.6269 41.5586 27.4296C40.6098 29.2007 40 31.6991 40 34.4999C40 37.3006 40.6098 39.799 41.5586 41.5702C42.5243 43.3728 43.7318 44.2499 44.875 44.2499V44.9999C41.7684 44.9999 39.25 40.2989 39.25 34.4999C39.25 28.7009 41.7684 23.9999 44.875 23.9999V24.7499Z" fill="white"/>
<rect x="44.875" y="24" width="5.625" height="0.75" fill="white"/>
<rect x="44.875" y="44.25" width="5.625" height="0.75" fill="white"/>
<path d="M25 28.125C24.3815 28.125 23.6413 28.6154 23.0117 29.8115C22.4005 30.973 22 32.6294 22 34.5C22 36.3706 22.4005 38.027 23.0117 39.1885C23.6413 40.3846 24.3815 40.875 25 40.875V41.625C22.9289 41.625 21.25 38.435 21.25 34.5C21.25 30.565 22.9289 27.375 25 27.375V28.125Z" fill="white"/>
<rect x="25" y="27.375" width="15.75" height="0.75" fill="white"/>
<rect x="25" y="40.875" width="15.75" height="0.75" fill="white"/>
<path d="M23.875 24C25.7198 24 27.3691 25.4576 28.4697 27.75H27.6318C27.5778 27.647 27.5231 27.5459 27.4668 27.4473C26.4447 25.6586 25.1466 24.75 23.875 24.75C22.6034 24.75 21.3053 25.6586 20.2832 27.4473C19.2732 29.2148 18.625 31.7068 18.625 34.5C18.625 37.2932 19.2732 39.7852 20.2832 41.5527C21.3053 43.3414 22.6034 44.25 23.875 44.25C25.1466 44.25 26.4447 43.3414 27.4668 41.5527C27.5231 41.4541 27.5778 41.353 27.6318 41.25H28.4697C27.3691 43.5424 25.7198 45 23.875 45C20.5613 45 17.875 40.299 17.875 34.5C17.875 28.701 20.5613 24 23.875 24Z" fill="white"/>
<path fill-rule="evenodd" clip-rule="evenodd" d="M46 54.7941C46 52.3235 49.125 48 49.75 48C50.375 48 53.5 52.3235 53.5 54.7941C53.5 56.8404 51.8206 58.5 49.75 58.5C47.6794 58.5 46 56.8404 46 54.7941Z" fill="#11437A" stroke="white" stroke-width="0.75" stroke-linecap="square"/>
<path d="M47.875 54.5074C47.875 55.6766 48.7147 56.625 49.75 56.625" stroke="white" stroke-width="0.75" stroke-linecap="round"/>
</svg>
