<svg width="16" height="17" viewBox="0 0 16 17" fill="none" xmlns="http://www.w3.org/2000/svg">
<path d="M11.5998 12.1L11.3998 12.28C11.5298 12.16 11.6498 12.04 11.7698 11.91L11.5998 12.1Z" fill="#101011"/>
<path d="M7 0.5C3.13 0.5 0 3.63 0 7.5C0 11.37 3.13 14.5 7 14.5C8.75 14.5 10.35 13.85 11.58 12.79L14.935 16.145C15.1311 16.3411 15.4489 16.3411 15.645 16.145C15.8411 15.9489 15.8411 15.6311 15.645 15.435L12.29 12.08C13.35 10.85 14 9.25 14 7.5C14 3.63 10.87 0.5 7 0.5ZM7 13.5C3.69 13.5 1 10.81 1 7.5C1 4.19 3.69 1.5 7 1.5C10.31 1.5 13 4.19 13 7.5C13 10.81 10.31 13.5 7 13.5Z" fill="#101011"/>
</svg>
